<svg width="96" height="96" xmlns="http://www.w3.org/2000/svg" xml:space="preserve" enable-background="new 0 0 709 714" version="1.1">
 <g>
  <title>Layer 1</title>
  <rect id="svg_1" height="714" width="709" fill="#FFFFFF"/>
  <g stroke="null" id="svg_6">
   <g stroke="null" id="svg_3">
    <path stroke="null" id="svg_4" d="m0,-0.49999c0,32.15951 0,64.31902 0,96.47853c32.03419,0 64.06838,0 96.10257,0c0,-32.15951 0,-64.31902 0,-96.47853c-32.03419,0 -64.06838,0 -96.10257,0zm77.58279,81.54522c-3.49804,1.58118 -6.9971,1.47737 -10.37758,-0.27585c-1.53144,-0.79424 -2.91592,-1.87215 -4.35674,-2.83673c-0.46612,-0.31205 -1.08906,-0.8081 -1.4137,-1.05331c-1.87332,1.06014 -4.18358,1.92293 -6.37281,2.59532c-8.05371,2.4736 -15.90255,1.45738 -23.42001,-1.95797c-9.60583,-4.36417 -15.29449,-11.94863 -17.77319,-22.13714c-3.22517,-13.25686 2.58129,-30.02805 16.19972,-38.01454c4.95263,-2.90446 10.31742,-4.30993 16.05173,-4.50905c3.97779,-0.13812 7.91393,0.03729 11.7416,1.16262c12.00484,3.52939 19.48026,11.5112 22.33415,23.53847c3.16963,13.35794 -0.80796,24.68738 -10.7227,34.05607c-0.13105,0.12384 -0.37813,0.31873 -0.56926,0.48639c2.35545,1.51148 4.6057,3.42126 7.32322,4.34182c2.4427,0.82749 4.86618,0.86532 7.40864,-0.36147c-1.50713,2.08375 -3.70443,3.90373 -6.05305,4.96536z" fill="#7f007f"/>
   </g>
   <path stroke="null" id="svg_5" d="m65.02551,68.96635c-6.14174,-4.55509 -12.73788,-5.18468 -19.7677,-2.49868c5.10411,0.43138 8.48667,3.73562 12.08084,7.12261c-1.29783,0.37122 -2.43723,0.76844 -3.60807,1.02072c-9.24195,1.9914 -16.57949,-1.18447 -22.40827,-8.3187c-4.12163,-5.04474 -6.45586,-10.86632 -7.5075,-17.25965c-1.08225,-6.57937 -0.29016,-12.93371 2.26387,-19.04797c2.09363,-5.0121 5.4738,-8.9524 10.68532,-10.89049c7.89158,-2.93478 15.24806,-1.75385 21.84182,3.4893c5.314,4.22552 8.70404,9.80513 10.8742,16.15057c1.55732,4.55352 2.35564,9.25389 2.18346,14.07082c-0.19661,5.49983 -1.77158,10.53945 -5.39324,14.81708c-0.39109,0.46192 -0.82233,0.89007 -1.24472,1.34439z" fill="#7f007f"/>
  </g>
 </g>

</svg>