<svg width="32" height="32" xmlns="http://www.w3.org/2000/svg" xml:space="preserve" enable-background="new 0 0 709 714" version="1.1">
 <g>
  <title>Layer 1</title>
  <rect id="svg_1" height="3" width="48" fill="#FFFFFF"/>
  <g stroke="null" id="svg_6">
   <g stroke="null" id="svg_3">
    <path stroke="null" id="svg_4" d="m0,-0.49999c0,10.82259 0,21.64517 0,32.46776c10.67766,0 21.35531,0 32.03297,0c0,-10.82259 0,-21.64517 0,-32.46776c-10.67766,0 -21.35531,0 -32.03297,0zm25.85995,27.44227c-1.16597,0.53211 -2.33228,0.49718 -3.45906,-0.09283c-0.51046,-0.26728 -0.97194,-0.63003 -1.45219,-0.95464c-0.15537,-0.10502 -0.36301,-0.27195 -0.47121,-0.35447c-0.62442,0.35677 -1.39447,0.64712 -2.12419,0.8734c-2.68447,0.83244 -5.30065,0.49045 -7.80637,-0.65891c-3.20182,-1.46867 -5.09797,-4.02105 -5.92417,-7.44977c-1.07502,-4.46131 0.8604,-10.10529 5.3997,-12.79297c1.65081,-0.97743 3.43901,-1.45041 5.35037,-1.51742c1.32588,-0.04648 2.63788,0.01255 3.91372,0.39126c4.00146,1.18774 6.49317,3.87384 7.44443,7.92136c1.0565,4.49533 -0.26931,8.308 -3.5741,11.46083c-0.04368,0.04168 -0.12604,0.10726 -0.18975,0.16368c0.78512,0.50865 1.53517,1.15135 2.44098,1.46115c0.8142,0.27847 1.622,0.29121 2.46945,-0.12165c-0.50236,0.70124 -1.23476,1.31372 -2.01761,1.67098z" fill="#7f007f"/>
   </g>
   <path stroke="null" id="svg_5" d="m21.67435,22.8774c-2.04717,-1.53292 -4.2458,-1.74479 -6.58898,-0.84088c1.7013,0.14517 2.82878,1.25714 4.02679,2.39696c-0.43259,0.12493 -0.81238,0.2586 -1.20265,0.3435c-3.08053,0.67016 -5.52629,-0.39861 -7.46914,-2.79948c-1.37383,-1.6977 -2.15187,-3.65683 -2.50241,-5.80836c-0.36074,-2.21415 -0.09672,-4.35256 0.75459,-6.41018c0.69785,-1.68671 1.82453,-3.01274 3.56164,-3.66496c2.63043,-0.98764 5.08249,-0.59022 7.28033,1.17425c1.77127,1.42201 2.90124,3.2997 3.62459,5.43513c0.51909,1.53239 0.78519,3.1142 0.72779,4.73523c-0.06553,1.85085 -0.5905,3.54682 -1.79768,4.98637c-0.13036,0.15545 -0.2741,0.29953 -0.41489,0.45243z" fill="#7f007f"/>
  </g>
 </g>

</svg>