<svg width="144" height="144" xmlns="http://www.w3.org/2000/svg" xml:space="preserve" enable-background="new 0 0 709 714" version="1.1">
 <g>
  <title>Layer 1</title>
  <rect id="svg_1" height="714" width="709" fill="#FFFFFF"/>
  <g stroke="null" id="svg_6">
   <g stroke="null" id="svg_3">
    <path stroke="null" id="svg_4" d="m0,-0.49999c0,48.34242 0,96.68483 0,145.02725c48.04119,0 96.0824,0 144.12359,0c0,-48.34242 0,-96.68483 0,-145.02725c-48.04119,0 -96.0824,0 -144.12359,0zm116.34975,122.57939c-5.24595,2.37685 -10.49345,2.22079 -15.56311,-0.41466c-2.29667,-1.19391 -4.37297,-2.81423 -6.53373,-4.26419c-0.69903,-0.46908 -1.63325,-1.21475 -2.1201,-1.58334c-2.80939,1.59361 -6.27405,2.89056 -9.55722,3.90131c-12.07802,3.71833 -23.84881,2.19075 -35.12264,-2.94323c-14.40573,-6.56025 -22.93692,-17.96126 -26.65419,-33.27671c-4.83674,-19.92781 3.87113,-45.13839 24.29448,-57.14375c7.42739,-4.366 15.47288,-6.47872 24.07254,-6.77804c5.96543,-0.20762 11.86841,0.05606 17.60869,1.74767c18.00348,5.3054 29.21425,17.30372 33.49419,35.3832c4.75345,20.07976 -1.21168,37.11025 -16.08067,51.19334c-0.19654,0.18616 -0.56708,0.47912 -0.85372,0.73114c3.53243,2.27206 6.9071,5.14286 10.98252,6.52666c3.66328,1.24388 7.29773,1.30076 11.11062,-0.54337c-2.26022,3.1323 -5.55548,5.86812 -9.07767,7.46396z" fill="#7f007f"/>
   </g>
   <path stroke="null" id="svg_5" d="m97.51779,103.92233c-9.21068,-6.84724 -19.1028,-7.79365 -29.64532,-3.75604c7.65455,0.64846 12.72733,5.61542 18.11745,10.70676c-1.94633,0.55802 -3.65508,1.15512 -5.41097,1.53436c-13.86001,2.99349 -24.86402,-1.78051 -33.60535,-12.50472c-6.18115,-7.58329 -9.68175,-16.33434 -11.25889,-25.94484c-1.62303,-9.89016 -0.43515,-19.44204 3.39509,-28.63305c3.13979,-7.53422 8.20898,-13.45731 16.02461,-16.37067c11.83489,-4.41158 22.86728,-2.6364 32.75585,5.24514c7.96933,6.35184 13.05332,14.73915 16.30787,24.27767c2.33549,6.84488 3.53273,13.91052 3.27451,21.15136c-0.29485,8.26738 -2.65681,15.84298 -8.08816,22.27314c-0.58651,0.69437 -1.23324,1.33795 -1.86669,2.0209z" fill="#7f007f"/>
  </g>
 </g>

</svg>