<svg width="709" height="714" xmlns="http://www.w3.org/2000/svg" xml:space="preserve" enable-background="new 0 0 709 714" version="1.1">
 <g>
  <title>Layer 1</title>
  <rect id="svg_1" height="714" width="709" fill="#FFFFFF"/>
  <g id="svg_3">
   <path id="svg_4" d="m0,1c0,238 0,476 0,714c236.33331,0 472.66669,0 709,0c0,-238 0,-476 0,-714c-236.33331,0 -472.66669,0 -709,0zm572.36969,603.48438c-25.80688,11.70172 -51.62134,10.93341 -76.56097,-2.04144c-11.29822,-5.87787 -21.51233,-13.85504 -32.14197,-20.99353c-3.43878,-2.30939 -8.03458,-5.98047 -10.4296,-7.7951c-13.8205,7.8457 -30.86447,14.23083 -47.01566,19.20697c-59.4165,18.30615 -117.32159,10.78552 -172.78192,-14.49017c-70.86737,-32.29749 -112.83563,-88.42712 -131.12231,-163.82831c-23.79382,-98.10883 19.04358,-222.22589 119.51398,-281.33081c36.53821,-21.49475 76.11713,-31.89612 118.42218,-33.36975c29.34625,-1.02216 58.38531,0.276 86.62402,8.60413c88.5661,26.11963 143.71625,85.18988 164.77094,174.19904c23.38409,98.85693 -5.96075,182.70166 -79.10706,252.03571c-0.96686,0.9165 -2.7897,2.35883 -4.19977,3.59955c17.37738,11.18585 33.9787,25.3194 54.02728,32.13214c18.02112,6.1239 35.90039,6.40393 54.65747,-2.67511c-11.11889,15.42099 -27.32958,28.88999 -44.65661,36.74668z" fill="#7f007f"/>
  </g>
  <path id="svg_5" d="m480.72794,516.09332c-45.31091,-33.71042 -93.97412,-38.36981 -145.83688,-18.49179c37.65573,3.1925 62.61069,27.6459 89.1268,52.71164c-9.57477,2.74725 -17.98077,5.68689 -26.61868,7.55396c-68.18277,14.73761 -122.31577,-8.76581 -165.31781,-61.56342c-30.40749,-37.33414 -47.6283,-80.41742 -55.38686,-127.73196c-7.98434,-48.69138 -2.14066,-95.71732 16.70175,-140.96657c15.44585,-37.09259 40.38318,-66.2532 78.83131,-80.5963c58.22043,-21.71917 112.49307,-12.97954 161.13879,25.82294c39.20422,31.27144 64.21436,72.56395 80.22476,119.52411c11.4892,33.69882 17.37885,68.48447 16.10858,104.13266c-1.4505,40.70209 -13.06989,77.99838 -39.78879,109.6554c-2.88528,3.41851 -6.06679,6.58703 -9.18297,9.94933z" fill="#7f007f"/>
 </g>

</svg>