<svg width="72" height="72" xmlns="http://www.w3.org/2000/svg" xml:space="preserve" enable-background="new 0 0 709 714" version="1.1">
 <g>
  <title>Layer 1</title>
  <rect id="svg_1" height="714" width="709" fill="#FFFFFF"/>
  <g stroke="null" id="svg_6">
   <g stroke="null" id="svg_3">
    <path stroke="null" id="svg_4" d="m0,-0.49999c0,24.16828 0,48.33656 0,72.50485c24.04296,0 48.08593,0 72.12889,0c0,-24.16828 0,-48.33656 0,-72.50485c-24.04296,0 -48.08593,0 -72.12889,0zm58.22904,61.28227c-2.62542,1.18828 -5.25161,1.11026 -7.7888,-0.2073c-1.1494,-0.59688 -2.18852,-1.40694 -3.26991,-2.13184c-0.34984,-0.23451 -0.81738,-0.6073 -1.06104,-0.79157c-1.406,0.79671 -3.13994,1.4451 -4.78306,1.95042c-6.04463,1.85894 -11.93551,1.09524 -17.57767,-1.47144c-7.20957,-3.27973 -11.47914,-8.97954 -13.3395,-16.63634c-2.42062,-9.9627 1.93737,-22.56646 12.15855,-28.56841c3.71715,-2.18274 7.74364,-3.23897 12.04748,-3.38861c2.98549,-0.1038 5.93973,0.02803 8.81254,0.87373c9.01012,2.65238 14.62072,8.65081 16.76269,17.68946c2.37894,10.03866 -0.60641,18.55288 -8.04782,25.59357c-0.09836,0.09307 -0.28381,0.23953 -0.42726,0.36552c1.76786,1.13589 3.45676,2.57112 5.49637,3.26294c1.83335,0.62187 3.65226,0.6503 5.56048,-0.27165c-1.13116,1.56596 -2.78033,2.9337 -4.54306,3.73153z" fill="#7f007f"/>
   </g>
   <path stroke="null" id="svg_5" d="m48.80429,51.70485c-4.60963,-3.42321 -9.56029,-3.89635 -14.83646,-1.87779c3.83084,0.32419 6.36959,2.80737 9.06716,5.35273c-0.97407,0.27898 -1.82924,0.57749 -2.70801,0.76709c-6.93646,1.49657 -12.44358,-0.89015 -16.81832,-6.25161c-3.09345,-3.79119 -4.84538,-8.16618 -5.63469,-12.97085c-0.81227,-4.94448 -0.21778,-9.71985 1.69912,-14.31479c1.57136,-3.76666 4.10831,-6.72784 8.01977,-8.18435c5.92295,-2.20553 11.44429,-1.31804 16.39318,2.62225c3.98837,3.17553 6.53274,7.36868 8.16153,12.13736c1.16883,3.42203 1.76801,6.95442 1.63878,10.5744c-0.14756,4.13319 -1.32964,7.92053 -4.04784,11.13522c-0.29353,0.34714 -0.61719,0.6689 -0.93421,1.01033z" fill="#7f007f"/>
  </g>
 </g>

</svg>