<svg width="384" height="380.99999999999994" xmlns="http://www.w3.org/2000/svg" xml:space="preserve" enable-background="new 0 0 709 714" version="1.1">
 <g>
  <title>Layer 1</title>
  <rect id="svg_1" height="714" width="709" fill="#FFFFFF"/>
  <g stroke="null" id="svg_6">
   <g stroke="null" id="svg_3">
    <path stroke="null" id="svg_4" d="m0,-0.49999c0,127.58394 0,255.16788 0,382.75183c128.00058,0 256.00121,0 384.00179,0c0,-127.58394 0,-255.16788 0,-382.75183c-128.00058,0 -256.00121,0 -384.00179,0zm310.00139,323.50805c-13.97728,6.27291 -27.95866,5.86104 -41.46622,-1.09435c-6.11923,-3.15093 -11.6513,-7.42723 -17.40843,-11.25394c-1.86248,-1.23799 -4.35161,-3.20593 -5.64878,-4.1787c-7.48533,4.20582 -16.71652,7.62868 -25.46417,10.29622c-32.1806,9.81332 -63.5426,5.78176 -93.58049,-7.7677c-38.38251,-17.31362 -61.11295,-47.40286 -71.01721,-87.82295c-12.88698,-52.5929 10.3142,-119.12796 64.73002,-150.81216c19.78948,-11.52263 41.22583,-17.09846 64.13869,-17.88842c15.89423,-0.54795 31.62209,0.14795 46.91647,4.61239c47.96832,14.00187 77.83822,45.66748 89.24166,93.38235c12.66507,52.99394 -3.2284,97.94033 -42.84521,135.10802c-0.52366,0.49131 -1.51093,1.26449 -2.27464,1.9296c9.41177,5.99636 18.40322,13.57289 29.26174,17.22498c9.76043,3.28282 19.44403,3.43294 29.60306,-1.43404c-6.02211,8.26668 -14.80199,15.48697 -24.18649,19.69868z" fill="#7f007f"/>
   </g>
   <path stroke="null" id="svg_5" d="m259.82565,275.08846c-24.54086,-18.07104 -50.89736,-20.56879 -78.98677,-9.91284c20.39474,1.71139 33.9106,14.82005 48.272,28.25697c-5.1858,1.47271 -9.73857,3.04855 -14.41695,4.04943c-36.9285,7.90035 -66.2475,-4.69906 -89.53785,-33.00212c-16.46901,-20.0136 -25.79598,-43.10912 -29.9981,-68.47289c-4.3244,-26.10184 -1.1594,-51.3109 9.04584,-75.56752c8.36563,-19.88411 21.87195,-35.51615 42.69586,-43.20502c31.53279,-11.64293 60.92742,-6.9579 87.27445,13.84283c21.23341,16.76359 34.77917,38.89914 43.45057,64.07293c6.22267,18.06482 9.41257,36.71226 8.72457,55.82208c-0.78561,21.81905 -7.07879,41.81236 -21.55002,58.78264c-1.5627,1.83255 -3.28584,3.53109 -4.97359,5.33351z" fill="#7f007f"/>
  </g>
 </g>

</svg>