<svg width="192" height="192" xmlns="http://www.w3.org/2000/svg" xml:space="preserve" enable-background="new 0 0 709 714" version="1.1">
 <g>
  <title>Layer 1</title>
  <rect id="svg_1" height="714" width="709" fill="#FFFFFF"/>
  <g stroke="null" id="svg_6">
   <g stroke="null" id="svg_3">
    <path stroke="null" id="svg_4" d="m0,-0.49999c0,64.18613 0,128.37226 0,192.55839c64.0608,0 128.12163,0 192.18243,0c0,-64.18613 0,-128.37226 0,-192.55839c-64.0608,0 -128.12163,0 -192.18243,0zm155.14725,162.75347c-6.99525,3.15583 -13.99255,2.94863 -20.75271,-0.55056c-3.06251,-1.5852 -5.83116,-3.73656 -8.71244,-5.66174c-0.93212,-0.62282 -2.17786,-1.61287 -2.82706,-2.10226c-3.7462,2.1159 -8.36616,3.83791 -12.74412,5.17992c-16.10551,4.93698 -31.80134,2.90874 -46.83448,-3.90785c-19.2094,-8.7103 -30.58537,-23.84788 -35.54218,-44.18279c-6.44958,-26.45893 5.16198,-59.93202 32.39561,-75.872c9.90409,-5.79691 20.6324,-8.60205 32.09966,-8.99948c7.95463,-0.27567 15.826,0.07443 23.48042,2.32044c24.00684,7.04419 38.95591,22.97483 44.66302,46.97967c6.33852,26.66069 -1.61573,49.27274 -21.44286,67.97142c-0.26208,0.24717 -0.75618,0.63615 -1.13839,0.97076c4.71033,3.01671 9.21031,6.82838 14.6447,8.6657c4.88483,1.65155 9.7312,1.72707 14.81552,-0.72145c-3.0139,4.15888 -7.40799,7.79133 -12.10468,9.9102z" fill="#7f007f"/>
   </g>
   <path stroke="null" id="svg_5" d="m130.03566,138.14564c-12.28203,-9.09135 -25.47274,-10.34794 -39.53073,-4.98704c10.20701,0.86098 16.97133,7.45581 24.15882,14.21578c-2.59535,0.7409 -4.87389,1.5337 -7.21529,2.03722c-18.48171,3.97458 -33.15507,-2.36405 -44.81125,-16.60302c-8.24229,-10.06863 -12.91019,-21.68774 -15.01323,-34.44798c-2.16425,-13.13156 -0.58025,-25.81397 4.5272,-38.01722c4.18677,-10.00349 10.94632,-17.8678 21.36811,-21.73599c15.7813,-5.85743 30.49251,-3.50045 43.67848,6.96418c10.62675,8.43358 17.40603,19.56974 21.74582,32.23441c3.11428,9.08822 4.71073,18.46955 4.36641,28.0835c-0.39317,10.97693 -3.54274,21.03535 -10.7852,29.57292c-0.78209,0.92194 -1.64447,1.77645 -2.48915,2.68323z" fill="#7f007f"/>
  </g>
 </g>

</svg>