<svg width="47.99999999999999" height="47.99999999999999" xmlns="http://www.w3.org/2000/svg" xml:space="preserve" enable-background="new 0 0 709 714" version="1.1">
 <g>
  <title>Layer 1</title>
  <rect id="svg_1" height="3" width="48" fill="#FFFFFF"/>
  <g stroke="null" id="svg_6">
   <g stroke="null" id="svg_3">
    <path stroke="null" id="svg_4" d="m0,-0.49999c0,16.23179 0,32.46358 0,48.69537c16.05173,0 32.10347,0 48.15521,0c0,-16.23179 0,-32.46358 0,-48.69537c-16.05173,0 -32.10347,0 -48.15521,0zm38.87529,41.15812c-1.7528,0.79807 -3.50612,0.74567 -5.20001,-0.13923c-0.76737,-0.40088 -1.46112,-0.94492 -2.18308,-1.43178c-0.23356,-0.1575 -0.54571,-0.40787 -0.70838,-0.53163c-0.93869,0.53508 -2.09631,0.97055 -3.1933,1.30993c-4.03556,1.24849 -7.96847,0.73558 -11.73533,-0.98824c-4.8133,-2.20271 -7.66378,-6.0308 -8.90581,-11.17322c-1.61607,-6.6911 1.29344,-15.15598 8.11738,-19.18699c2.48167,-1.46596 5.16987,-2.17534 8.04322,-2.27584c1.99319,-0.06971 3.96552,0.01882 5.88349,0.58681c6.0154,1.78138 9.76119,5.81002 11.19123,11.88051c1.58825,6.74212 -0.40485,12.4604 -5.37294,17.18904c-0.06567,0.06251 -0.18948,0.16087 -0.28525,0.24549c1.18027,0.76288 2.30783,1.7268 3.66953,2.19144c1.22399,0.41765 2.43835,0.43675 3.71233,-0.18244c-0.75519,1.05172 -1.85622,1.97032 -3.03307,2.50615z" fill="#7f007f"/>
   </g>
   <path stroke="null" id="svg_5" d="m32.58307,34.56158c-3.07751,-2.29908 -6.38271,-2.61685 -9.90523,-1.26115c2.55757,0.21773 4.25251,1.88547 6.05348,3.59498c-0.65032,0.18736 -1.22125,0.38785 -1.80794,0.51519c-4.63097,1.00512 -8.30767,-0.59784 -11.22837,-4.19867c-2.06527,-2.54622 -3.23491,-5.48453 -3.76187,-8.71142c-0.5423,-3.32079 -0.14539,-6.528 1.13438,-9.61403c1.04908,-2.52974 2.74282,-4.51852 5.35421,-5.49673c3.95433,-1.48126 7.64052,-0.88521 10.94453,1.76115c2.66275,2.13274 4.36143,4.94892 5.44886,8.15164c0.78035,2.29829 1.18037,4.6707 1.09409,7.10193c-0.09852,2.77591 -0.88771,5.31955 -2.70245,7.47859c-0.19597,0.23315 -0.41206,0.44924 -0.62371,0.67855z" fill="#7f007f"/>
  </g>
 </g>

</svg>