<svg width="152" height="152" xmlns="http://www.w3.org/2000/svg" xml:space="preserve" enable-background="new 0 0 709 714" version="1.1">
 <g>
  <title>Layer 1</title>
  <rect id="svg_1" height="714" width="709" fill="#FFFFFF"/>
  <g stroke="null" id="svg_6">
   <g stroke="null" id="svg_3">
    <path stroke="null" id="svg_4" d="m0,-0.49999c0,50.98093 0,101.96187 0,152.9428c50.67971,0 101.35943,0 152.03913,0c0,-50.98093 0,-101.96187 0,-152.9428c-50.67971,0 -101.35943,0 -152.03913,0zm122.7399,129.26973c-5.53407,2.50657 -11.06977,2.342 -16.41786,-0.43729c-2.42281,-1.25907 -4.61314,-2.96783 -6.89258,-4.49693c-0.73742,-0.49468 -1.72295,-1.28105 -2.23654,-1.66975c-2.96369,1.68059 -6.61863,3.04832 -10.08212,4.11424c-12.74137,3.92128 -25.15864,2.31032 -37.05164,-3.10388c-15.19692,-6.9183 -24.19666,-18.94158 -28.11809,-35.09294c-5.10239,-21.01546 4.08374,-47.60203 25.62878,-60.26264c7.83531,-4.6043 16.32268,-6.83233 25.39465,-7.14799c6.29306,-0.21895 12.52024,0.05912 18.5758,1.84305c18.99226,5.59497 30.81875,18.24815 35.33375,37.31441c5.01452,21.17571 -1.27823,39.13572 -16.96385,53.98746c-0.20734,0.19632 -0.59823,0.50527 -0.90061,0.77104c3.72643,2.39607 7.28645,5.42356 11.5857,6.88288c3.86448,1.31177 7.69854,1.37176 11.72084,-0.57302c-2.38435,3.30326 -5.8606,6.1884 -9.57624,7.87134z" fill="#7f007f"/>
   </g>
   <path stroke="null" id="svg_5" d="m102.87365,109.62168c-9.71655,-7.22096 -20.15197,-8.21903 -31.2735,-3.96104c8.07496,0.68385 13.42634,5.92191 19.1125,11.29113c-2.05323,0.58848 -3.85583,1.21816 -5.70815,1.6181c-14.62123,3.15688 -26.2296,-1.87769 -35.45102,-13.18723c-6.52063,-7.99718 -10.21349,-17.22586 -11.87725,-27.3609c-1.71218,-10.42997 -0.45905,-20.50319 3.58155,-30.19583c3.31223,-7.94544 8.65984,-14.19181 16.90472,-17.26418c12.48489,-4.65237 24.1232,-2.78029 34.55487,5.53142c8.40702,6.69852 13.77023,15.5436 17.20353,25.60273c2.46376,7.21848 3.72675,14.66976 3.45435,22.3058c-0.31105,8.71862 -2.80273,16.70769 -8.53237,23.4888c-0.61872,0.73226 -1.30097,1.41098 -1.96921,2.1312z" fill="#7f007f"/>
  </g>
 </g>

</svg>