<svg width="512" height="512" xmlns="http://www.w3.org/2000/svg" version="1.1" enable-background="new 0 0 709 714" xml:space="preserve">
 <g>
  <title>Layer 1</title>
  <rect stroke="null" x="0" y="1.99999" fill="#FFFFFF" width="512.00002" height="509" id="svg_1"/>
  <g stroke="null" id="svg_2">
   <g stroke="null" id="svg_3">
    <path stroke="null" fill="#7f007f" d="m0,0.00002c0,170.66666 0,341.33333 0,511.99999c170.66666,0 341.33336,0 512.00002,0c0,-170.66666 0,-341.33333 0,-511.99999c-170.66666,0 -341.33336,0 -512.00002,0zm413.33327,432.7507c-18.63628,8.39115 -37.27804,7.8402 -55.28804,-1.46389c-8.15894,-4.21494 -15.535,-9.93527 -23.21113,-15.05418c-2.48329,-1.65603 -5.80212,-4.28852 -7.53167,-5.58976c-9.98039,5.62605 -22.28859,10.20474 -33.95207,13.77307c-42.90726,13.1271 -84.72307,7.73415 -124.77341,-10.39071c-51.17644,-23.1601 -81.48356,-63.40992 -94.68917,-117.47912c-17.18256,-70.35255 13.7522,-159.35526 86.30629,-201.73862c26.38585,-15.4136 54.96752,-22.87229 85.51785,-23.92901c21.19222,-0.73298 42.16259,0.19792 62.55501,6.16991c63.95747,18.73004 103.78381,61.08854 118.98833,124.91584c16.88668,70.889 -4.30452,131.01295 -57.12668,180.73149c-0.69821,0.65721 -2.01456,1.69149 -3.03284,2.58119c12.54897,8.02123 24.53751,18.15621 39.01547,23.04153c13.01384,4.39137 25.92525,4.59217 39.47056,-1.91829c-8.02944,11.05819 -19.73589,20.71663 -32.2485,26.35056z" id="svg_4"/>
   </g>
   <path stroke="null" fill="#7f007f" d="m347.15474,369.36665c-32.721,-24.1733 -67.86284,-27.51449 -105.31521,-13.26022c27.19286,2.2893 45.21393,19.82451 64.36237,37.79882c-6.91436,1.97002 -12.9847,4.07799 -19.22252,5.41685c-49.23777,10.56815 -88.32959,-6.28585 -119.38325,-44.14632c-21.95858,-26.77182 -34.39449,-57.66627 -39.99728,-91.59491c-5.76584,-34.91595 -1.54586,-68.63763 12.06107,-101.08527c11.15413,-26.59861 29.16247,-47.5093 56.92755,-57.79454c42.04353,-15.57453 81.23618,-9.30746 116.36539,18.51729c28.31109,22.42434 46.37201,52.03465 57.93382,85.70916c8.29686,24.16498 12.55003,49.10931 11.63271,74.67216c-1.04747,29.18693 -9.43834,55.93161 -28.73323,78.63244c-2.08359,2.45137 -4.3811,4.72347 -6.63143,7.13453z" id="svg_5"/>
  </g>
 </g>

</svg>