<svg width="128" height="128" xmlns="http://www.w3.org/2000/svg" xml:space="preserve" enable-background="new 0 0 709 714" version="1.1">
 <g>
  <title>Layer 1</title>
  <rect id="svg_1" height="714" width="709" fill="#FFFFFF"/>
  <g stroke="null" id="svg_6">
   <g stroke="null" id="svg_3">
    <path stroke="null" id="svg_4" d="m0,-0.49999c0,42.88948 0,85.77896 0,128.66845c42.67621,0 85.35243,0 128.02863,0c0,-42.88948 0,-85.77896 0,-128.66845c-42.67621,0 -85.35243,0 -128.02863,0zm103.35643,108.75266c-4.66011,2.10874 -9.32159,1.97029 -13.8251,-0.36788c-2.04019,-1.05924 -3.88462,-2.49679 -5.80408,-3.7832c-0.62096,-0.41617 -1.45086,-1.07773 -1.88334,-1.40474c-2.49566,1.41386 -5.57339,2.56451 -8.48992,3.46125c-10.72921,3.29891 -21.1855,1.94364 -31.20033,-2.61124c-12.79697,-5.82026 -20.37545,-15.93527 -23.67759,-29.52316c-4.2966,-17.67999 3.43882,-40.04686 21.5814,-50.69804c6.59794,-3.87352 13.74495,-5.74793 21.38425,-6.01349c5.29924,-0.1842 10.54301,0.04974 15.64225,1.55053c15.99294,4.70696 25.95176,15.35189 29.75373,31.39204c4.22261,17.8148 -1.07637,32.92428 -14.28486,45.41883c-0.17459,0.16516 -0.50375,0.42508 -0.75838,0.64867c3.13794,2.01578 6.13575,4.56276 9.75605,5.79047c3.25419,1.10358 6.48276,1.15404 9.86985,-0.48208c-2.00781,2.77898 -4.93508,5.2062 -8.06393,6.62204z" fill="#7f007f"/>
   </g>
   <path stroke="null" id="svg_5" d="m86.62752,92.14369c-8.18208,-6.07488 -16.9695,-6.91454 -26.33469,-3.33237c6.79973,0.57531 11.30601,4.98201 16.09419,9.49905c-1.72898,0.49508 -3.2469,1.02482 -4.8067,1.36128c-12.3122,2.65583 -22.08734,-1.57967 -29.85249,-11.09422c-5.49087,-6.72791 -8.60054,-14.49185 -10.00156,-23.01831c-1.44178,-8.77457 -0.38655,-17.24902 3.01594,-25.40329c2.78916,-6.68438 7.29225,-11.93935 14.23507,-14.52409c10.51323,-3.91397 20.31359,-2.33902 29.09785,4.6535c7.07935,5.63536 11.59559,13.0766 14.48669,21.53919c2.07468,6.07279 3.13821,12.34144 2.90883,18.76553c-0.26193,7.33484 -2.36011,14.05592 -7.18491,19.76077c-0.52101,0.61604 -1.09552,1.18703 -1.65823,1.79295z" fill="#7f007f"/>
  </g>
 </g>

</svg>