

<svg xmlns="http://www.w3.org/2000/svg" width="40" height="32" class="d-block my-1" viewBox="0 0 118 94"
    role="img">
    <title>Q小程序</title>
    <path fill-rule="evenodd" clip-rule="evenodd"
        d="m24.509,0c-6.733,0 -11.715,5.893 -11.492,12.284c0.214,6.14 -0.064,14.092 -2.066,20.577c-2.008,6.504 -5.404,10.624 -10.951,11.153l0,5.972c5.547,0.529 8.943,4.649 10.951,11.153c2.002,6.485 2.28,14.437 2.066,20.577c-0.223,6.39 4.759,12.284 11.493,12.284l68.99,0c6.733,0 11.714,-5.893 11.491,-12.284c-0.214,-6.14 0.064,-14.092 2.066,-20.577c2.009,-6.504 5.396,-10.624 10.943,-11.153l0,-5.972c-5.547,-0.529 -8.934,-4.649 -10.943,-11.153c-2.002,-6.484 -2.28,-14.437 -2.066,-20.577c0.223,-6.39 -4.758,-12.284 -11.491,-12.284l-68.992,0l0.001,0zm0,0m35.05783,68.62146c-11.06144,0 -20.0212,-10.29656 -20.0212,-23.00837c0,-12.7118 6.5333,-23.37088 20.16826,-23.59147c13.63496,-0.22059 20.22975,10.87967 20.22975,23.59147c0,6.35591 -2.73781,12.96148 -6.36043,17.1246c3.44666,3.60049 6.89332,7.20098 10.33999,10.80148c-2.10281,1.46644 -10.38894,0.1644 -12.49175,0.61339l-6.12153,-6.21173c-3.79963,0.85378 -5.05175,0.68063 -5.74309,0.68063zm0.3393,-8.47574c-5.99102,0 -11.09374,-5.85169 -10.84374,-15.03123c0.25,-9.17955 3.91522,-15.09373 10.84374,-15.03123c6.92852,0.0625 11.15624,3.91419 10.96874,14.96873c-0.1875,11.05455 -4.97772,15.09373 -10.96874,15.09373z"
        fill="#6610f2"></path>
</svg>